# xmcd CD database file
#
# Track frame offsets:
#	150
#	6008
#	40096
#	69350
#	90537
#	108195
#	136771
#	160183
#	192891
#	217163
#	245923
#	281382
#
# Disc length: 3765 seconds
#
# Revision: 0
# Processed by: cddbd v1.5.1PL0 Copyright (c) Steve Scherf et al.
# Submitted via: CDex 1.51
#
DISCID=9e0eb30c
DTITLE=GABA AGONIST - ちょびッと。
DYEAR=1900
DGENRE=Anime
TTITLE0=Welcome
TTITLE1=Let be me with you (More beats mix)
TTITLE2=檸檬のトキメキ (C/P Long mix)
TTITLE3=Flower Psygetellic (Type:Kasumi/"Pules Resonance"mix)
TTITLE4=Speed☆Master (It's only speed way mix)
TTITLE5=夢みたい☆エンジェル隊 (Acid Hysteria mix)
TTITLE6=おめざ体操第一 (Decode Error mix)
TTITLE7=カタコトの恋 (Step with me mix)
TTITLE8=ちぃ、テクノする (Alpha Bulid)
TTITLE9=天罰!!∞ (天罰!!天罰!!天罰!!天罰!!mix)
TTITLE10=I wanna be your friend (@ここだよーmix)
TTITLE11=ボーナストラック
EXTD=
EXTT0=
EXTT1=
EXTT2=
EXTT3=
EXTT4=
EXTT5=
EXTT6=
EXTT7=
EXTT8=
EXTT9=
EXTT10=
EXTT11=
PLAYORDER=
